# Blender v2.93.5 OBJ File: ''
# www.blender.org
o Cylinder
v 0.987718 1.000000 -0.750000
v 1.146082 1.000000 -0.734403
v 1.286550 1.000000 -0.691792
v 1.416006 1.000000 -0.622596
v 1.529475 1.000000 -0.529475
v 1.622596 1.000000 -0.416006
v 1.691792 1.000000 -0.286550
v 1.734403 1.000000 -0.146082
v 1.748790 1.000000 0.000000
v 1.734403 1.000000 0.146082
v 1.691792 1.000000 0.286550
v 1.622597 1.000000 0.416006
v 1.529475 1.000000 0.529475
v 1.416006 1.000000 0.622597
v 1.286550 1.000000 0.691792
v 1.146082 1.000000 0.734403
v 0.987718 1.000000 0.750000
v -0.987718 1.000000 -0.750000
v -0.987718 1.000000 0.750000
v -1.146082 1.000000 0.734403
v -1.286550 1.000000 0.691792
v -1.416006 1.000000 0.622596
v -1.529475 1.000000 0.529475
v -1.622596 1.000000 0.416006
v -1.691792 1.000000 0.286550
v -1.734403 1.000000 0.146082
v -1.748790 1.000000 -0.000000
v -1.734403 1.000000 -0.146082
v -1.691792 1.000000 -0.286550
v -1.622597 1.000000 -0.416005
v -1.529475 1.000000 -0.529475
v -1.416006 1.000000 -0.622596
v -1.286550 1.000000 -0.691792
v -1.146082 1.000000 -0.734403
v 0.987718 -1.000000 -0.750000
v 1.146082 -1.000000 -0.734403
v 1.286550 -1.000000 -0.691792
v 1.416006 -1.000000 -0.622596
v 1.529475 -1.000000 -0.529475
v 1.622596 -1.000000 -0.416006
v 1.691792 -1.000000 -0.286550
v 1.734403 -1.000000 -0.146082
v 1.748790 -1.000000 0.000000
v 1.734403 -1.000000 0.146082
v 1.691792 -1.000000 0.286550
v 1.622597 -1.000000 0.416006
v 1.529475 -1.000000 0.529475
v 1.416006 -1.000000 0.622597
v 1.286550 -1.000000 0.691792
v 1.146082 -1.000000 0.734403
v 0.987718 -1.000000 0.750000
v -0.987718 -1.000000 -0.750000
v -0.987718 -1.000000 0.750000
v -1.146082 -1.000000 0.734403
v -1.286550 -1.000000 0.691792
v -1.416006 -1.000000 0.622596
v -1.529475 -1.000000 0.529475
v -1.622596 -1.000000 0.416006
v -1.691792 -1.000000 0.286550
v -1.734403 -1.000000 0.146082
v -1.748790 -1.000000 -0.000000
v -1.734403 -1.000000 -0.146082
v -1.691792 -1.000000 -0.286550
v -1.622597 -1.000000 -0.416005
v -1.529475 -1.000000 -0.529475
v -1.416006 -1.000000 -0.622596
v -1.286550 -1.000000 -0.691792
v -1.146082 -1.000000 -0.734403
v 0.800000 1.000000 -0.750000
v 0.600000 1.000000 -0.750000
v 0.400000 1.000000 -0.750000
v 0.200000 1.000000 -0.750000
v 0.000000 1.000000 -0.750000
v -0.200000 1.000000 -0.750000
v -0.400000 1.000000 -0.750000
v -0.600000 1.000000 -0.750000
v -0.800000 1.000000 -0.750000
v -0.800000 -1.000000 -0.750000
v -0.600000 -1.000000 -0.750000
v -0.400000 -1.000000 -0.750000
v -0.200000 -1.000000 -0.750000
v 0.000000 -1.000000 -0.750000
v 0.200000 -1.000000 -0.750000
v 0.400000 -1.000000 -0.750000
v 0.600000 -1.000000 -0.750000
v 0.800000 -1.000000 -0.750000
v -0.800000 1.000000 0.750000
v -0.600000 1.000000 0.750000
v -0.400000 1.000000 0.750000
v -0.200000 1.000000 0.750000
v -0.000000 1.000000 0.750000
v 0.200000 1.000000 0.750000
v 0.400000 1.000000 0.750000
v 0.600000 1.000000 0.750000
v 0.800000 1.000000 0.750000
v 0.800000 -1.000000 0.750000
v 0.600000 -1.000000 0.750000
v 0.400000 -1.000000 0.750000
v 0.200000 -1.000000 0.750000
v -0.000000 -1.000000 0.750000
v -0.200000 -1.000000 0.750000
v -0.400000 -1.000000 0.750000
v -0.600000 -1.000000 0.750000
v -0.800000 -1.000000 0.750000
v 0.800000 1.000000 1.000000
v 1.000000 1.000000 1.000000
v -0.800000 -1.000000 1.000000
v -1.000000 -1.000000 1.000000
v 1.195090 1.000000 -0.980785
v 1.000000 1.000000 -1.000000
v 1.382684 1.000000 -0.923880
v 1.555570 1.000000 -0.831470
v 1.707107 1.000000 -0.707107
v 1.831470 1.000000 -0.555570
v 1.923880 1.000000 -0.382683
v 1.980785 1.000000 -0.195090
v 2.000000 1.000000 0.000000
v 1.980785 1.000000 0.195090
v 1.923880 1.000000 0.382683
v 1.831470 1.000000 0.555570
v 1.707107 1.000000 0.707107
v 1.555570 1.000000 0.831470
v 1.382684 1.000000 0.923880
v 1.195090 1.000000 0.980785
v -1.195090 1.000000 0.980785
v -1.000000 1.000000 1.000000
v -1.382683 1.000000 0.923880
v -1.555570 1.000000 0.831470
v -1.707107 1.000000 0.707107
v -1.831470 1.000000 0.555570
v -1.923880 1.000000 0.382684
v -1.980785 1.000000 0.195090
v -2.000000 1.000000 -0.000000
v -1.980785 1.000000 -0.195090
v -1.923879 1.000000 -0.382684
v -1.831470 1.000000 -0.555570
v -1.707107 1.000000 -0.707107
v -1.555570 1.000000 -0.831470
v -1.382683 1.000000 -0.923880
v -1.195090 1.000000 -0.980785
v -1.000000 1.000000 -1.000000
v 1.195090 -1.000000 -0.980785
v 1.000000 -1.000000 -1.000000
v 1.382684 -1.000000 -0.923880
v 1.555570 -1.000000 -0.831470
v 1.707107 -1.000000 -0.707107
v 1.831470 -1.000000 -0.555570
v 1.923880 -1.000000 -0.382683
v 1.980785 -1.000000 -0.195090
v 2.000000 -1.000000 0.000000
v 1.980785 -1.000000 0.195090
v 1.923880 -1.000000 0.382683
v 1.831470 -1.000000 0.555570
v 1.707107 -1.000000 0.707107
v 1.555570 -1.000000 0.831470
v 1.382684 -1.000000 0.923880
v 1.195090 -1.000000 0.980785
v 1.000000 -1.000000 1.000000
v -1.195090 -1.000000 0.980785
v -1.382683 -1.000000 0.923880
v -1.555570 -1.000000 0.831470
v -1.707107 -1.000000 0.707107
v -1.831470 -1.000000 0.555570
v -1.923880 -1.000000 0.382684
v -1.980785 -1.000000 0.195090
v -2.000000 -1.000000 -0.000000
v -1.980785 -1.000000 -0.195090
v -1.923879 -1.000000 -0.382684
v -1.831470 -1.000000 -0.555570
v -1.707107 -1.000000 -0.707107
v -1.555570 -1.000000 -0.831470
v -1.382683 -1.000000 -0.923880
v -1.195090 -1.000000 -0.980785
v -1.000000 -1.000000 -1.000000
v -0.800000 1.000000 -1.000000
v 0.800000 -1.000000 -1.000000
v 0.800000 1.000000 -1.000000
v 0.600000 1.000000 -1.000000
v 0.400000 1.000000 -1.000000
v 0.200000 1.000000 -1.000000
v 0.000000 1.000000 -1.000000
v -0.200000 1.000000 -1.000000
v -0.400000 1.000000 -1.000000
v -0.600000 1.000000 -1.000000
v -0.800000 -1.000000 -1.000000
v -0.600000 -1.000000 -1.000000
v -0.400000 -1.000000 -1.000000
v -0.200000 -1.000000 -1.000000
v 0.000000 -1.000000 -1.000000
v 0.200000 -1.000000 -1.000000
v 0.400000 -1.000000 -1.000000
v 0.600000 -1.000000 -1.000000
v -0.800000 1.000000 1.000000
v -0.600000 1.000000 1.000000
v -0.400000 1.000000 1.000000
v -0.200000 1.000000 1.000000
v -0.000000 1.000000 1.000000
v 0.200000 1.000000 1.000000
v 0.400000 1.000000 1.000000
v 0.600000 1.000000 1.000000
v 0.800000 -1.000000 1.000000
v 0.600000 -1.000000 1.000000
v 0.400000 -1.000000 1.000000
v 0.200000 -1.000000 1.000000
v -0.000000 -1.000000 1.000000
v -0.200000 -1.000000 1.000000
v -0.400000 -1.000000 1.000000
v -0.600000 -1.000000 1.000000
vt 0.000000 0.000000
vt 0.000000 0.000000
vt 0.000000 0.000000
vt 0.000000 0.000000
vt 0.000000 0.000000
vt 0.000000 0.000000
vt 0.000000 0.000000
vt 0.000000 0.000000
vt 0.000000 0.000000
vt 0.000000 0.000000
vt 0.000000 0.000000
vt 0.000000 0.000000
vt 0.000000 0.000000
vt 0.000000 0.000000
vt 0.000000 0.000000
vt 0.000000 0.000000
vt 0.000000 0.000000
vt 0.000000 0.000000
vt 0.000000 0.000000
vt 0.000000 0.000000
vt 0.000000 0.000000
vt 0.000000 0.000000
vt 0.000000 0.000000
vt 0.000000 0.000000
vt 0.000000 0.000000
vt 0.000000 0.000000
vt 0.000000 0.000000
vt 0.000000 0.000000
vt 0.000000 0.000000
vt 0.000000 0.000000
vt 0.000000 0.000000
vt 0.000000 0.000000
vt 0.000000 0.000000
vt 0.000000 0.000000
vt 0.000000 0.000000
vt 0.000000 0.000000
vt 0.000000 0.000000
vt 0.000000 0.000000
vt 0.000000 0.000000
vt 0.000000 0.000000
vt 0.000000 0.000000
vt 0.000000 0.000000
vt 0.000000 0.000000
vt 0.000000 0.000000
vt 0.000000 0.000000
vt 0.000000 0.000000
vt 0.000000 0.000000
vt 0.000000 0.000000
vt 0.000000 0.000000
vt 0.000000 0.000000
vt 0.000000 0.000000
vt 0.000000 0.000000
vt 0.000000 0.000000
vt 0.000000 0.000000
vt 0.000000 0.000000
vt 0.000000 0.000000
vt 0.000000 0.000000
vt 0.000000 0.000000
vt 0.000000 0.000000
vt 0.000000 0.000000
vt 0.000000 0.000000
vt 0.000000 0.000000
vt 0.000000 0.000000
vt 0.000000 0.000000
vt 0.000000 0.000000
vt 0.000000 0.000000
vt 0.000000 0.000000
vt 0.000000 0.000000
vt 0.000000 0.000000
vt 0.000000 0.000000
vt 0.000000 0.000000
vt 0.000000 0.000000
vt 0.000000 0.000000
vt 0.000000 0.000000
vt 0.000000 0.000000
vt 0.000000 0.000000
vt 0.000000 0.000000
vt 0.000000 0.000000
vt 0.000000 0.000000
vt 0.000000 0.000000
vt 0.000000 0.000000
vt 0.000000 0.000000
vt 0.000000 0.000000
vt 0.000000 0.000000
vt 0.000000 0.000000
vt 0.000000 0.000000
vt 0.000000 0.000000
vt 0.000000 0.000000
vt 0.000000 0.000000
vt 0.000000 0.000000
vt 0.000000 0.000000
vt 0.000000 0.000000
vt 0.000000 0.000000
vt 0.000000 0.000000
vt 0.000000 0.000000
vt 0.000000 0.000000
vt 0.000000 0.000000
vt 0.000000 0.000000
vt 0.000000 0.000000
vt 0.000000 0.000000
vt 0.000000 0.000000
vt 0.000000 0.000000
vt 0.000000 0.000000
vt 0.000000 0.000000
vt 0.000000 0.000000
vt 0.000000 0.000000
vt 0.000000 0.000000
vt 0.000000 0.000000
vt 0.000000 0.000000
vt 0.000000 0.000000
vt 0.000000 0.000000
vt 0.000000 0.000000
vt 0.000000 0.000000
vt 0.000000 0.000000
vt 0.000000 0.000000
vt 0.000000 0.000000
vt 0.000000 0.000000
vt 0.000000 0.000000
vt 0.000000 0.000000
vt 0.000000 0.000000
vt 0.000000 0.000000
vt 0.000000 0.000000
vt 0.000000 0.000000
vt 0.000000 0.000000
vt 0.000000 0.000000
vt 0.000000 0.000000
vt 0.000000 0.000000
vt 0.000000 0.000000
vt 0.000000 0.000000
vt 0.000000 0.000000
vt 0.000000 0.000000
vt 0.000000 0.000000
vt 0.000000 0.000000
vt 0.000000 0.000000
vt 0.000000 0.000000
vt 0.000000 0.000000
vt 0.000000 0.000000
vt 0.000000 0.000000
vt 0.000000 0.000000
vt 0.000000 0.000000
vt 0.000000 0.000000
vt 0.000000 0.000000
vt 0.000000 0.000000
vt 0.000000 0.000000
vt 0.000000 0.000000
vt 0.000000 0.000000
vt 0.000000 0.000000
vt 0.000000 0.000000
vt 0.000000 0.000000
vt 0.000000 0.000000
vt 0.000000 0.000000
vt 0.000000 0.000000
vt 0.000000 0.000000
vt 0.000000 0.000000
vt 0.000000 0.000000
vt 0.000000 0.000000
vt 0.000000 0.000000
vt 0.000000 0.000000
vt 0.000000 0.000000
vt 0.000000 0.000000
vt 0.000000 0.000000
vt 0.000000 0.000000
vt 0.000000 0.000000
vt 0.000000 0.000000
vt 0.000000 0.000000
vt 0.000000 0.000000
vt 0.000000 0.000000
vt 0.000000 0.000000
vt 0.000000 0.000000
vt 0.000000 0.000000
vt 0.000000 0.000000
vt 0.000000 0.000000
vt 0.000000 0.000000
vt 0.000000 0.000000
vt 0.000000 0.000000
vt 0.000000 0.000000
vt 0.000000 0.000000
vt 0.000000 0.000000
vt 0.000000 0.000000
vt 0.000000 0.000000
vt 0.000000 0.000000
vt 0.000000 0.000000
vt 0.000000 0.000000
vt 0.000000 0.000000
vt 0.000000 0.000000
vt 0.000000 0.000000
vt 0.000000 0.000000
vt 0.000000 0.000000
vt 0.000000 0.000000
vt 0.000000 0.000000
vt 0.000000 0.000000
vt 0.000000 0.000000
vt 0.000000 0.000000
vt 0.000000 0.000000
vt 0.000000 0.000000
vt 0.000000 0.000000
vt 0.000000 0.000000
vt 0.000000 0.000000
vt 0.000000 0.000000
vt 0.000000 0.000000
vt 0.000000 0.000000
vt 0.000000 0.000000
vt 0.000000 0.000000
vt 0.000000 0.000000
vt 0.000000 0.000000
vt 0.000000 0.000000
vt 0.000000 0.000000
vt 0.000000 0.000000
vn 0.0000 0.0000 1.0000
vn -0.8819 0.0000 0.4714
vn 0.9952 0.0000 0.0980
vn -0.9569 0.0000 0.2903
vn 0.9569 0.0000 0.2903
vn -0.9952 0.0000 0.0980
vn 0.8819 0.0000 0.4714
vn -0.9952 0.0000 -0.0980
vn 0.7730 0.0000 0.6344
vn -0.9569 0.0000 -0.2903
vn 0.6344 0.0000 0.7730
vn -0.8819 0.0000 -0.4714
vn 0.4714 0.0000 0.8819
vn 0.0980 0.0000 -0.9952
vn -0.7730 0.0000 -0.6344
vn 0.2903 0.0000 0.9569
vn 0.2903 0.0000 -0.9569
vn -0.6344 0.0000 -0.7730
vn 0.0980 0.0000 0.9952
vn 0.4714 0.0000 -0.8819
vn -0.4714 0.0000 -0.8819
vn -0.0980 0.0000 0.9952
vn 0.6344 0.0000 -0.7730
vn -0.2903 0.0000 -0.9569
vn -0.2903 0.0000 0.9569
vn 0.7730 0.0000 -0.6344
vn -0.0980 0.0000 -0.9952
vn -0.4714 0.0000 0.8819
vn 0.8819 0.0000 -0.4714
vn -0.6344 0.0000 0.7730
vn 0.9569 0.0000 -0.2903
vn -0.7730 0.0000 0.6344
vn 0.9952 0.0000 -0.0980
vn 0.0000 0.0000 -1.0000
vn 0.0000 1.0000 0.0000
vn 0.0000 -1.0000 0.0000
s off
f 158/1/1 105/2/1 201/3/1
f 164/4/2 130/5/2 131/6/2
f 151/7/3 117/8/3 118/9/3
f 165/10/4 131/6/4 132/11/4
f 152/12/5 118/9/5 119/13/5
f 166/14/6 132/11/6 133/15/6
f 153/16/7 119/13/7 120/17/7
f 167/18/8 133/15/8 134/19/8
f 154/20/9 120/17/9 121/21/9
f 168/22/10 134/19/10 135/23/10
f 155/24/11 121/21/11 122/25/11
f 169/26/12 135/23/12 136/27/12
f 156/28/13 122/25/13 123/29/13
f 142/30/14 110/31/14 109/32/14
f 170/33/15 136/27/15 137/34/15
f 157/35/16 123/29/16 124/36/16
f 144/37/17 109/32/17 111/38/17
f 171/39/18 137/34/18 138/40/18
f 158/1/19 124/36/19 106/41/19
f 145/42/20 111/38/20 112/43/20
f 172/44/21 138/40/21 139/45/21
f 159/46/22 126/47/22 125/48/22
f 146/49/23 112/43/23 113/50/23
f 173/51/24 139/45/24 140/52/24
f 160/53/25 125/48/25 127/54/25
f 147/55/26 113/50/26 114/56/26
f 174/57/27 140/52/27 141/58/27
f 161/59/28 127/54/28 128/60/28
f 148/61/29 114/56/29 115/62/29
f 162/63/30 128/60/30 129/64/30
f 149/65/31 115/62/31 116/66/31
f 163/67/32 129/64/32 130/5/32
f 150/68/33 116/66/33 117/8/33
f 110/31/34 176/69/34 177/70/34
f 175/71/34 174/57/34 141/58/34
f 184/72/34 185/73/34 175/71/34
f 183/74/34 186/75/34 184/72/34
f 182/76/34 187/77/34 183/74/34
f 181/78/34 188/79/34 182/76/34
f 180/80/34 189/81/34 181/78/34
f 179/82/34 190/83/34 180/80/34
f 178/84/34 191/85/34 179/82/34
f 177/70/34 192/86/34 178/84/34
f 107/87/1 126/47/1 108/88/1
f 208/89/1 193/90/1 107/87/1
f 207/91/1 194/92/1 208/89/1
f 206/93/1 195/94/1 207/91/1
f 205/95/1 196/96/1 206/93/1
f 204/97/1 197/98/1 205/95/1
f 203/99/1 198/100/1 204/97/1
f 202/101/1 199/102/1 203/99/1
f 201/3/1 200/103/1 202/101/1
f 105/2/35 17/104/35 95/105/35
f 107/87/36 53/106/36 104/107/36
f 2/108/35 110/31/35 1/109/35
f 111/38/35 2/108/35 3/110/35
f 112/43/35 3/110/35 4/111/35
f 5/112/35 112/43/35 4/111/35
f 114/56/35 5/112/35 6/113/35
f 115/62/35 6/113/35 7/114/35
f 116/66/35 7/114/35 8/115/35
f 117/8/35 8/115/35 9/116/35
f 118/9/35 9/116/35 10/117/35
f 11/118/35 118/9/35 10/117/35
f 120/17/35 11/118/35 12/119/35
f 121/21/35 12/119/35 13/120/35
f 14/121/35 121/21/35 13/120/35
f 123/29/35 14/121/35 15/122/35
f 124/36/35 15/122/35 16/123/35
f 106/41/35 16/123/35 17/104/35
f 20/124/35 126/47/35 19/125/35
f 127/54/35 20/124/35 21/126/35
f 128/60/35 21/126/35 22/127/35
f 129/64/35 22/127/35 23/128/35
f 130/5/35 23/128/35 24/129/35
f 131/6/35 24/129/35 25/130/35
f 132/11/35 25/130/35 26/131/35
f 27/132/35 132/11/35 26/131/35
f 134/19/35 27/132/35 28/133/35
f 135/23/35 28/133/35 29/134/35
f 30/135/35 135/23/35 29/134/35
f 137/34/35 30/135/35 31/136/35
f 32/137/35 137/34/35 31/136/35
f 33/138/35 138/40/35 32/137/35
f 140/52/35 33/138/35 34/139/35
f 141/58/35 34/139/35 18/140/35
f 143/141/36 36/142/36 35/143/36
f 142/30/36 37/144/36 36/142/36
f 144/37/36 38/145/36 37/144/36
f 145/42/36 39/146/36 38/145/36
f 146/49/36 40/147/36 39/146/36
f 147/55/36 41/148/36 40/147/36
f 148/61/36 42/149/36 41/148/36
f 149/65/36 43/150/36 42/149/36
f 43/150/36 151/7/36 44/151/36
f 151/7/36 45/152/36 44/151/36
f 45/152/36 153/16/36 46/153/36
f 153/16/36 47/154/36 46/153/36
f 47/154/36 155/24/36 48/155/36
f 48/155/36 156/28/36 49/156/36
f 49/156/36 157/35/36 50/157/36
f 50/157/36 158/1/36 51/158/36
f 108/88/36 54/159/36 53/106/36
f 54/159/36 160/53/36 55/160/36
f 55/160/36 161/59/36 56/161/36
f 56/161/36 162/63/36 57/162/36
f 162/63/36 58/163/36 57/162/36
f 163/67/36 59/164/36 58/163/36
f 59/164/36 165/10/36 60/165/36
f 165/10/36 61/166/36 60/165/36
f 61/166/36 167/18/36 62/167/36
f 62/167/36 168/22/36 63/168/36
f 168/22/36 64/169/36 63/168/36
f 64/169/36 170/33/36 65/170/36
f 170/33/36 66/171/36 65/170/36
f 171/39/36 67/172/36 66/171/36
f 67/172/36 173/51/36 68/173/36
f 68/173/36 174/57/36 52/174/36
f 175/71/35 18/140/35 77/175/35
f 176/69/36 35/143/36 86/176/36
f 1/109/35 177/70/35 69/177/35
f 177/70/35 70/178/35 69/177/35
f 178/84/35 71/179/35 70/178/35
f 179/82/35 72/180/35 71/179/35
f 180/80/35 73/181/35 72/180/35
f 181/78/35 74/182/35 73/181/35
f 182/76/35 75/183/35 74/182/35
f 183/74/35 76/184/35 75/183/35
f 184/72/35 77/175/35 76/184/35
f 52/174/36 185/73/36 78/185/36
f 185/73/36 79/186/36 78/185/36
f 186/75/36 80/187/36 79/186/36
f 187/77/36 81/188/36 80/187/36
f 188/79/36 82/189/36 81/188/36
f 189/81/36 83/190/36 82/189/36
f 190/83/36 84/191/36 83/190/36
f 191/85/36 85/192/36 84/191/36
f 192/86/36 86/176/36 85/192/36
f 19/125/35 193/90/35 87/193/35
f 193/90/35 88/194/35 87/193/35
f 194/92/35 89/195/35 88/194/35
f 195/94/35 90/196/35 89/195/35
f 196/96/35 91/197/35 90/196/35
f 197/98/35 92/198/35 91/197/35
f 198/100/35 93/199/35 92/198/35
f 199/102/35 94/200/35 93/199/35
f 200/103/35 95/105/35 94/200/35
f 51/158/36 201/3/36 96/201/36
f 201/3/36 97/202/36 96/201/36
f 202/101/36 98/203/36 97/202/36
f 203/99/36 99/204/36 98/203/36
f 204/97/36 100/205/36 99/204/36
f 205/95/36 101/206/36 100/205/36
f 206/93/36 102/207/36 101/206/36
f 207/91/36 103/208/36 102/207/36
f 208/89/36 104/107/36 103/208/36
f 17/104/27 50/157/27 51/158/27
f 16/123/24 49/156/24 50/157/24
f 15/122/21 48/155/21 49/156/21
f 14/121/18 47/154/18 48/155/18
f 13/120/15 46/153/15 47/154/15
f 12/119/12 45/152/12 46/153/12
f 11/118/10 44/151/10 45/152/10
f 10/117/8 43/150/8 44/151/8
f 9/116/6 42/149/6 43/150/6
f 8/115/4 41/148/4 42/149/4
f 7/114/2 40/147/2 41/148/2
f 6/113/32 39/146/32 40/147/32
f 5/112/30 38/145/30 39/146/30
f 4/111/28 37/144/28 38/145/28
f 3/110/25 36/142/25 37/144/25
f 2/108/22 35/143/22 36/142/22
f 1/109/1 86/176/1 35/143/1
f 69/177/1 85/192/1 86/176/1
f 70/178/1 84/191/1 85/192/1
f 71/179/1 83/190/1 84/191/1
f 72/180/1 82/189/1 83/190/1
f 73/181/1 81/188/1 82/189/1
f 74/182/1 80/187/1 81/188/1
f 75/183/1 79/186/1 80/187/1
f 76/184/1 78/185/1 79/186/1
f 77/175/1 52/174/1 78/185/1
f 18/140/19 68/173/19 52/174/19
f 34/139/16 67/172/16 68/173/16
f 33/138/13 66/171/13 67/172/13
f 32/137/11 65/170/11 66/171/11
f 31/136/9 64/169/9 65/170/9
f 30/135/7 63/168/7 64/169/7
f 29/134/5 62/167/5 63/168/5
f 28/133/3 61/166/3 62/167/3
f 27/132/33 60/165/33 61/166/33
f 26/131/31 59/164/31 60/165/31
f 25/130/29 58/163/29 59/164/29
f 24/129/26 57/162/26 58/163/26
f 23/128/23 56/161/23 57/162/23
f 22/127/20 55/160/20 56/161/20
f 21/126/17 54/159/17 55/160/17
f 20/124/14 53/106/14 54/159/14
f 19/125/34 104/107/34 53/106/34
f 87/193/34 103/208/34 104/107/34
f 88/194/34 102/207/34 103/208/34
f 89/195/34 101/206/34 102/207/34
f 90/196/34 100/205/34 101/206/34
f 91/197/34 99/204/34 100/205/34
f 92/198/34 98/203/34 99/204/34
f 93/199/34 97/202/34 98/203/34
f 94/200/34 96/201/34 97/202/34
f 95/105/34 51/158/34 96/201/34
f 158/1/1 106/41/1 105/2/1
f 164/4/2 163/67/2 130/5/2
f 151/7/3 150/68/3 117/8/3
f 165/10/4 164/4/4 131/6/4
f 152/12/5 151/7/5 118/9/5
f 166/14/6 165/10/6 132/11/6
f 153/16/7 152/12/7 119/13/7
f 167/18/8 166/14/8 133/15/8
f 154/20/9 153/16/9 120/17/9
f 168/22/10 167/18/10 134/19/10
f 155/24/11 154/20/11 121/21/11
f 169/26/12 168/22/12 135/23/12
f 156/28/13 155/24/13 122/25/13
f 142/30/14 143/141/14 110/31/14
f 170/33/15 169/26/15 136/27/15
f 157/35/16 156/28/16 123/29/16
f 144/37/17 142/30/17 109/32/17
f 171/39/18 170/33/18 137/34/18
f 158/1/19 157/35/19 124/36/19
f 145/42/20 144/37/20 111/38/20
f 172/44/21 171/39/21 138/40/21
f 159/46/22 108/88/22 126/47/22
f 146/49/23 145/42/23 112/43/23
f 173/51/24 172/44/24 139/45/24
f 160/53/25 159/46/25 125/48/25
f 147/55/26 146/49/26 113/50/26
f 174/57/27 173/51/27 140/52/27
f 161/59/28 160/53/28 127/54/28
f 148/61/29 147/55/29 114/56/29
f 162/63/30 161/59/30 128/60/30
f 149/65/31 148/61/31 115/62/31
f 163/67/32 162/63/32 129/64/32
f 150/68/33 149/65/33 116/66/33
f 110/31/34 143/141/34 176/69/34
f 175/71/34 185/73/34 174/57/34
f 184/72/34 186/75/34 185/73/34
f 183/74/34 187/77/34 186/75/34
f 182/76/34 188/79/34 187/77/34
f 181/78/34 189/81/34 188/79/34
f 180/80/34 190/83/34 189/81/34
f 179/82/34 191/85/34 190/83/34
f 178/84/34 192/86/34 191/85/34
f 177/70/34 176/69/34 192/86/34
f 107/87/1 193/90/1 126/47/1
f 208/89/1 194/92/1 193/90/1
f 207/91/1 195/94/1 194/92/1
f 206/93/1 196/96/1 195/94/1
f 205/95/1 197/98/1 196/96/1
f 204/97/1 198/100/1 197/98/1
f 203/99/1 199/102/1 198/100/1
f 202/101/1 200/103/1 199/102/1
f 201/3/1 105/2/1 200/103/1
f 105/2/35 106/41/35 17/104/35
f 107/87/36 108/88/36 53/106/36
f 2/108/35 109/32/35 110/31/35
f 111/38/35 109/32/35 2/108/35
f 112/43/35 111/38/35 3/110/35
f 5/112/35 113/50/35 112/43/35
f 114/56/35 113/50/35 5/112/35
f 115/62/35 114/56/35 6/113/35
f 116/66/35 115/62/35 7/114/35
f 117/8/35 116/66/35 8/115/35
f 118/9/35 117/8/35 9/116/35
f 11/118/35 119/13/35 118/9/35
f 120/17/35 119/13/35 11/118/35
f 121/21/35 120/17/35 12/119/35
f 14/121/35 122/25/35 121/21/35
f 123/29/35 122/25/35 14/121/35
f 124/36/35 123/29/35 15/122/35
f 106/41/35 124/36/35 16/123/35
f 20/124/35 125/48/35 126/47/35
f 127/54/35 125/48/35 20/124/35
f 128/60/35 127/54/35 21/126/35
f 129/64/35 128/60/35 22/127/35
f 130/5/35 129/64/35 23/128/35
f 131/6/35 130/5/35 24/129/35
f 132/11/35 131/6/35 25/130/35
f 27/132/35 133/15/35 132/11/35
f 134/19/35 133/15/35 27/132/35
f 135/23/35 134/19/35 28/133/35
f 30/135/35 136/27/35 135/23/35
f 137/34/35 136/27/35 30/135/35
f 32/137/35 138/40/35 137/34/35
f 33/138/35 139/45/35 138/40/35
f 140/52/35 139/45/35 33/138/35
f 141/58/35 140/52/35 34/139/35
f 143/141/36 142/30/36 36/142/36
f 142/30/36 144/37/36 37/144/36
f 144/37/36 145/42/36 38/145/36
f 145/42/36 146/49/36 39/146/36
f 146/49/36 147/55/36 40/147/36
f 147/55/36 148/61/36 41/148/36
f 148/61/36 149/65/36 42/149/36
f 149/65/36 150/68/36 43/150/36
f 43/150/36 150/68/36 151/7/36
f 151/7/36 152/12/36 45/152/36
f 45/152/36 152/12/36 153/16/36
f 153/16/36 154/20/36 47/154/36
f 47/154/36 154/20/36 155/24/36
f 48/155/36 155/24/36 156/28/36
f 49/156/36 156/28/36 157/35/36
f 50/157/36 157/35/36 158/1/36
f 108/88/36 159/46/36 54/159/36
f 54/159/36 159/46/36 160/53/36
f 55/160/36 160/53/36 161/59/36
f 56/161/36 161/59/36 162/63/36
f 162/63/36 163/67/36 58/163/36
f 163/67/36 164/4/36 59/164/36
f 59/164/36 164/4/36 165/10/36
f 165/10/36 166/14/36 61/166/36
f 61/166/36 166/14/36 167/18/36
f 62/167/36 167/18/36 168/22/36
f 168/22/36 169/26/36 64/169/36
f 64/169/36 169/26/36 170/33/36
f 170/33/36 171/39/36 66/171/36
f 171/39/36 172/44/36 67/172/36
f 67/172/36 172/44/36 173/51/36
f 68/173/36 173/51/36 174/57/36
f 175/71/35 141/58/35 18/140/35
f 176/69/36 143/141/36 35/143/36
f 1/109/35 110/31/35 177/70/35
f 177/70/35 178/84/35 70/178/35
f 178/84/35 179/82/35 71/179/35
f 179/82/35 180/80/35 72/180/35
f 180/80/35 181/78/35 73/181/35
f 181/78/35 182/76/35 74/182/35
f 182/76/35 183/74/35 75/183/35
f 183/74/35 184/72/35 76/184/35
f 184/72/35 175/71/35 77/175/35
f 52/174/36 174/57/36 185/73/36
f 185/73/36 186/75/36 79/186/36
f 186/75/36 187/77/36 80/187/36
f 187/77/36 188/79/36 81/188/36
f 188/79/36 189/81/36 82/189/36
f 189/81/36 190/83/36 83/190/36
f 190/83/36 191/85/36 84/191/36
f 191/85/36 192/86/36 85/192/36
f 192/86/36 176/69/36 86/176/36
f 19/125/35 126/47/35 193/90/35
f 193/90/35 194/92/35 88/194/35
f 194/92/35 195/94/35 89/195/35
f 195/94/35 196/96/35 90/196/35
f 196/96/35 197/98/35 91/197/35
f 197/98/35 198/100/35 92/198/35
f 198/100/35 199/102/35 93/199/35
f 199/102/35 200/103/35 94/200/35
f 200/103/35 105/2/35 95/105/35
f 51/158/36 158/1/36 201/3/36
f 201/3/36 202/101/36 97/202/36
f 202/101/36 203/99/36 98/203/36
f 203/99/36 204/97/36 99/204/36
f 204/97/36 205/95/36 100/205/36
f 205/95/36 206/93/36 101/206/36
f 206/93/36 207/91/36 102/207/36
f 207/91/36 208/89/36 103/208/36
f 208/89/36 107/87/36 104/107/36
f 17/104/27 16/123/27 50/157/27
f 16/123/24 15/122/24 49/156/24
f 15/122/21 14/121/21 48/155/21
f 14/121/18 13/120/18 47/154/18
f 13/120/15 12/119/15 46/153/15
f 12/119/12 11/118/12 45/152/12
f 11/118/10 10/117/10 44/151/10
f 10/117/8 9/116/8 43/150/8
f 9/116/6 8/115/6 42/149/6
f 8/115/4 7/114/4 41/148/4
f 7/114/2 6/113/2 40/147/2
f 6/113/32 5/112/32 39/146/32
f 5/112/30 4/111/30 38/145/30
f 4/111/28 3/110/28 37/144/28
f 3/110/25 2/108/25 36/142/25
f 2/108/22 1/109/22 35/143/22
f 1/109/1 69/177/1 86/176/1
f 69/177/1 70/178/1 85/192/1
f 70/178/1 71/179/1 84/191/1
f 71/179/1 72/180/1 83/190/1
f 72/180/1 73/181/1 82/189/1
f 73/181/1 74/182/1 81/188/1
f 74/182/1 75/183/1 80/187/1
f 75/183/1 76/184/1 79/186/1
f 76/184/1 77/175/1 78/185/1
f 77/175/1 18/140/1 52/174/1
f 18/140/19 34/139/19 68/173/19
f 34/139/16 33/138/16 67/172/16
f 33/138/13 32/137/13 66/171/13
f 32/137/11 31/136/11 65/170/11
f 31/136/9 30/135/9 64/169/9
f 30/135/7 29/134/7 63/168/7
f 29/134/5 28/133/5 62/167/5
f 28/133/3 27/132/3 61/166/3
f 27/132/33 26/131/33 60/165/33
f 26/131/31 25/130/31 59/164/31
f 25/130/29 24/129/29 58/163/29
f 24/129/26 23/128/26 57/162/26
f 23/128/23 22/127/23 56/161/23
f 22/127/20 21/126/20 55/160/20
f 21/126/17 20/124/17 54/159/17
f 20/124/14 19/125/14 53/106/14
f 19/125/34 87/193/34 104/107/34
f 87/193/34 88/194/34 103/208/34
f 88/194/34 89/195/34 102/207/34
f 89/195/34 90/196/34 101/206/34
f 90/196/34 91/197/34 100/205/34
f 91/197/34 92/198/34 99/204/34
f 92/198/34 93/199/34 98/203/34
f 93/199/34 94/200/34 97/202/34
f 94/200/34 95/105/34 96/201/34
f 95/105/34 17/104/34 51/158/34
